<svg  version="1.1" viewBox="0 0 100 100" xmlns="http://www.w3.org/2000/svg">
 <g>
  <path d="m38.078 12.398-15.578-6.5898-15.578 6.5898 0.66797 0.28125 14.91 6.3086 14.91-6.3086z"/>
  <path d="m5.75 34.5 16 6.7695v-20.969l-16-6.7695z"/>
  <path d="m23.25 41.27 16-6.7695v-20.969l-16 6.7695z"/>
  <path d="m75.75 94.551 18.141-9.8516-18.141-24.73z"/>
  <path d="m74.25 94.551v-34.582l-18.141 24.73z"/>
  <path d="m75 19.059h-27.289c-0.41406 0-0.75 0.33594-0.75 0.75 0 0.41406 0.33594 0.75 0.75 0.75h26.539v20.762h1.5v-21.512c0-0.41406-0.33594-0.75-0.75-0.75z"/>
  <path d="m75 52.82 7.0703-10h-14.141z"/>
  <path d="m23.25 60.289h-1.5v24.711c0.003906 0.41016 0.33984 0.74609 0.75 0.75h25.211c0.41406 0 0.75-0.33594 0.75-0.75s-0.33594-0.75-0.75-0.75h-24.461z"/>
  <path d="m22.5 48.789-7.0703 10h14.141z"/>
 </g>
</svg>