
<svg version="1.1" viewBox="0 0 100 100" xmlns="http://www.w3.org/2000/svg">
 <path fill="currentColor" d="m20.418 11.883 9.2695 50.617c-6.0391 0-10.938 4.8984-10.938 10.938s4.8984 10.938 10.938 10.938h5.2227c-0.34766 0.97656-0.53516 2.0273-0.53516 3.125 0 5.1758 4.1992 9.375 9.375 9.375s9.375-4.1992 9.375-9.375c0-1.0977-0.1875-2.1484-0.53516-3.125h19.82c-0.34766 0.97656-0.53516 2.0273-0.53516 3.125 0 5.1758 4.1992 9.375 9.375 9.375s9.375-4.1992 9.375-9.375-4.1992-9.375-9.375-9.375h-51.562c-2.5859 0-4.6875-2.1016-4.6875-4.6875s2.1016-4.6875 4.6875-4.6875h54.688c1.4766 0 2.7461-1.0273 3.0547-2.4688l9.375-43.75c0.19531-0.92578-0.03125-1.8867-0.625-2.6211s-1.4883-1.1602-2.4297-1.1602h-65.582l-1.6211-8.0938c-0.87891-4.3789-4.7266-7.5312-9.1953-7.5312h-11.102c-1.7266 0-3.125 1.3984-3.125 3.125s1.3984 3.125 3.125 3.125h11.102c1.4922 0 2.7734 1.0508 3.0664 2.5078zm60.832 72.492c1.7266 0 3.125 1.3984 3.125 3.125s-1.3984 3.125-3.125 3.125-3.125-1.3984-3.125-3.125 1.3984-3.125 3.125-3.125zm-37.5 0c1.7266 0 3.125 1.3984 3.125 3.125s-1.3984 3.125-3.125 3.125-3.125-1.3984-3.125-3.125 1.3984-3.125 3.125-3.125zm-7.6875-21.875-6.6445-37.5h60.465l-8.0352 37.5h-45.789zm4.6055-27.613 3.125 18.75c0.28125 1.7031 1.8945 2.8516 3.5938 2.5703 1.7031-0.28125 2.8516-1.8945 2.5703-3.5938l-3.125-18.75c-0.28125-1.7031-1.8945-2.8516-3.5938-2.5703-1.7031 0.28125-2.8516 1.8945-2.5703 3.5938zm31.25-1.0234-3.125 18.75c-0.28516 1.6992 0.86719 3.3125 2.5703 3.5938 1.6992 0.28516 3.3125-0.86719 3.5938-2.5703l3.125-18.75c0.28516-1.6992-0.86719-3.3125-2.5703-3.5938-1.6992-0.28516-3.3125 0.86719-3.5938 2.5703zm-15.668 0.51172v18.75c0 1.7266 1.3984 3.125 3.125 3.125s3.125-1.3984 3.125-3.125v-18.75c0-1.7266-1.3984-3.125-3.125-3.125s-3.125 1.3984-3.125 3.125z" fill-rule="evenodd"/>
</svg>
