<svg  version="1.1" viewBox="0 0 100 100" xmlns="http://www.w3.org/2000/svg">
 <path d="m59.449 14.043c2.6992 0.89844 4.0508 3.1484 4.0508 5.8516l-17.102 63c-0.89844 1.8008-2.6992 3.1484-4.5 3.1484h-1.3516c-2.6992-0.89844-4.0508-3.1484-3.6016-5.8516l17.102-63c0.45312-2.25 3.1523-3.5977 5.4023-3.1484zm16.199 14.852 18 18c1.8008 1.8008 1.8008 4.5 0 6.3008l-18 18c-0.89844 0.89844-2.25 1.3516-3.1484 1.3516s-2.25-0.44922-3.1484-1.3516c-1.8008-1.8008-1.8008-4.5 0-6.3008l14.852-14.852-14.852-14.852c-1.8008-1.8008-1.8008-4.5 0-6.3008 1.7969-1.7969 4.5-1.7969 6.2969 0.003906zm-45 0c1.8008 1.8008 1.8008 4.5 0 6.3008l-14.848 14.848 14.852 14.852c1.8008 1.8008 1.8008 4.5 0 6.3008-0.89844 0.89844-1.8008 1.3516-3.1484 1.3516-1.3516 0-2.25-0.44922-3.1484-1.3516l-18-18c-1.8008-1.8008-1.8008-4.5 0-6.3008l18-18c1.793-1.8008 4.4961-1.8008 6.293 0z" fill-rule="evenodd"/>
</svg>