<svg  version="1.1" viewBox="0 0 100 100" xmlns="http://www.w3.org/2000/svg">
 <path fill="currentColor" d="m94.898 82h-7.6016c0-4.3008 0.19922-48.199 0.19922-51.102l7.3984 1.5zm-25.898-47.699v5.3008l15.398-3.1992v-5.3008c-3.8984 0.79688-11.598 2.3984-15.398 3.1992zm0.10156 47.699h15.102l0.10156-42.5-15.305 3.3008zm-3.3008-49c0-0.69922 0.5-1.3984 1.1992-1.5l8.1016-1.6992v-17.602l-15.5-5.3008v75.102h6.3984c0-1.6016-0.10156-48.699-0.19922-49zm-40.801-18.602 31.5-7.6992v9.6016l-25.398 6.1992c-2 0.5-1.1992 3.5 0.69922 3l24.602-6v10.602l-25.398 6.1992c-0.80078 0.19922-1.3984 1.1016-1.1016 1.8984 0.19922 0.80078 1.1016 1.3008 1.8984 1.1016l24.602-6v10.602l-25.398 6.1992c-0.80078 0.19922-1.3984 1.1016-1.1016 1.8984 0.19922 0.80078 1.1016 1.3008 1.8984 1.1016l24.602-6v10.602l-13.102 3.2969c-0.80078 0.19922-1.3984 1.1016-1.1016 1.8984 0.19922 0.80078 1.1016 1.3008 1.8984 1.1016l12.5-3.1016 0.003906 21.102h-28v-23.699c0-0.69922-0.5-1.3984-1.1992-1.5l-2.6992-0.60156-0.003906-40.898c0-0.5 0.19922-0.90234 0.30078-0.90234zm6.5 52.602c-0.19922 0.10156 5.1992-1.3008 5.3008-1.1992 2-0.5 1.3008-3.5-0.69922-3l-4.8984 1.1992c-1.8047 0.39844-1.5039 3 0.29688 3zm-6-7.5s-2.6016-0.5-2.6992-0.60156l-2.8008-0.5v23.602h5.5zm-20.5 2.8984 0.10156 19.602h11.699l0.10156-23.5-11.203 2.3984c-0.19922 0-0.69922 0.60156-0.69922 1.5zm8.1016 27.801h-9.6016c-2 0-2.1016 3.1016 0 3.1016h9.6992c2 0 2-3.1016-0.097657-3.1016zm20.898 0h-9.6992c-2 0-2.1016 3.1016 0 3.1016h9.6992c2 0 2-3.1016 0-3.1016zm20.801 0h-9.6992c-0.89844 0-1.6016 0.69922-1.6016 1.6016 0 0.89844 0.69922 1.6016 1.6016 1.6016h9.6992c2.0977-0.10156 2.0977-3.2031 0-3.2031zm20.898 0h-9.6992c-2 0-2.1016 3.1016 0 3.1016h9.6992c2 0 2-3.1016 0-3.1016zm20.801 0h-9.6992c-2 0-2.1016 3.1016 0 3.1016h9.6992c2.1016 0 2.1016-3.1016 0-3.1016z"/>
</svg>
