<svg  version="1.1" viewBox="0 0 100 100" xmlns="http://www.w3.org/2000/svg">
 <g fill="currentColor">
  <path d="m92.949 8.7773c1.8477-1.6953 1.9766-4.5703 0.28516-6.4258-1.6875-1.8555-4.5586-1.9805-6.418-0.28906l-27.383 25.016-43.805-0.10547c-2.5117 0-4.5469 2.0352-4.5469 4.5469 0 2.5078 2.0352 4.5469 4.5469 4.5469h26.699v16.414l-18.625 0.019531c-1.793 0.007812-3.4766 0.88672-4.4883 2.3672-1.0195 1.4805-1.2422 3.3672-0.59766 5.043l8.3398 21.727c0.83594 2.1719 2.9023 3.5039 5.0938 3.5039 0.65234 0 1.3125-0.11719 1.9531-0.36719 2.8164-1.0781 4.2188-4.2344 3.1406-7.0469l-5.4961-14.32 24.453-0.023438 0.03125 14.984-21.543 9.8125c-2.7422 1.2461-3.9531 4.4844-2.7031 7.2305 0.91406 2.0078 2.8945 3.1953 4.9688 3.1953 0.75781 0 1.5273-0.16016 2.2617-0.49219l24.746-11.273c1.9453-0.88672 3.1992-2.8359 3.1875-4.9766l-0.089843-49.352z"/>
  <path d="m57.645 16.914c0 4.9688-4.0273 8.9961-8.9883 8.9961-4.9688 0-9-4.0312-9-8.9961 0-4.9688 4.0273-9 9-9 4.957 0 8.9883 4.0312 8.9883 9z"/>
 </g>
</svg>