<svg version="1.1" viewBox="0 0 100 100" xmlns="http://www.w3.org/2000/svg">
 <g fill="currentColor">
  <path d="m72.699 47.398c0-12.5-10.199-22.699-22.699-22.699s-22.699 10.199-22.699 22.699c0 1.8008 0.19922 3.6016 0.69922 5.3984 0.60156 2.8984 1.6992 4.6992 3.1992 7.1992 0.30078 0.60156 0.69922 1.1992 1.1016 1.8984 0.5 0.80078 0.89844 1.6016 1.3984 2.3008 2 3.3008 3.1992 5.1992 3.1992 9.1016v9.3984c0 2.3984 1.6992 4.3008 4 4.6992 1 5.1016 4 8.3008 9.1016 8.3008s8.1992-3.1992 9.1016-8.3008c2.3008-0.39844 4-2.3984 4-4.6992v-9.3984c0-3.8984 1.1992-5.8984 3.1992-9.1016 0.39844-0.69922 0.89844-1.5 1.3984-2.3008 0.39844-0.69922 0.80078-1.3008 1.1016-1.8984 1.5-2.5 2.6016-4.3008 3.1992-7.1992 0.5-1.7969 0.69922-3.5977 0.69922-5.3984zm-13.5 28.301h-18.199v-2.3008c0-0.5 0-0.89844-0.10156-1.3008h18.301c0 0.39844-0.10156 0.80078-0.10156 1.3008l0.003906 2.3008zm-0.89844 7.9023h-16.602c-0.5 0-0.80078-0.39844-0.80078-0.80078v-3.1016h18.199v3.1016c0.10156 0.39844-0.29688 0.80078-0.79688 0.80078zm-8.3008 8.1992c-1.1016 0-3.8984 0-5-4.1992h10.102c-1.1016 4.1992-4 4.1992-5.1016 4.1992zm18.102-39.801c-0.5 2.1992-1.3008 3.6992-2.6992 6-0.39844 0.60156-0.69922 1.1992-1.1016 1.8984-0.5 0.80078-0.89844 1.6016-1.3008 2.1992-1.1992 2-2.3008 3.8008-3 5.8984h-19.801c-0.69922-2.1016-1.6992-3.8984-3-5.8984-0.39844-0.69922-0.89844-1.3984-1.3008-2.1992-0.39844-0.69922-0.80078-1.3984-1.1016-1.8984-1.3984-2.3984-2.1992-3.8008-2.6992-6.1016-0.39844-1.5-0.60156-3-0.60156-4.5 0-10.301 8.3984-18.699 18.699-18.699 10.301 0 18.699 8.3984 18.699 18.699-0.19531 1.5-0.39453 3-0.79297 4.6016z"/>
  <path d="m91.199 45.398h-8.3008c-1.1016 0-2 0.89844-2 2 0 1.1016 0.89844 2 2 2h8.3008c1.1016 0 2-0.89844 2-2 0-1.0977-0.89844-2-2-2z"/>
  <path d="m73.199 26.199c0.5 0 1-0.19922 1.3984-0.60156l5.8984-5.8984c0.80078-0.80078 0.80078-2 0-2.8008-0.80078-0.80078-2-0.80078-2.8008 0l-5.8984 5.8984c-0.80078 0.80078-0.80078 2 0 2.8008 0.40234 0.40234 0.90234 0.60156 1.4023 0.60156z"/>
  <path d="m50 16.5c1.1016 0 2-0.89844 2-2v-8.3008c0-1.1016-0.89844-2-2-2s-2 0.89844-2 2v8.3008c0 1.1016 0.89844 2 2 2z"/>
  <path d="m25.398 25.602c0.39844 0.39844 0.89844 0.60156 1.3984 0.60156s1-0.19922 1.3984-0.60156c0.80078-0.80078 0.80078-2 0-2.8008l-5.8984-5.8984c-0.80078-0.80078-2-0.80078-2.8008 0-0.80078 0.80078-0.80078 2 0 2.8008z"/>
  <path d="m17.199 45.398h-8.3008c-1.1016 0-2 0.89844-2 2 0 1.1016 0.89844 2 2 2h8.3008c1.1016 0 2-0.89844 2-2 0-1.0977-0.89844-2-2-2z"/>
  <path d="m25.398 69.199l-5.8984 5.8984c-0.80078 0.80078-0.80078 2 0 2.8008 0.39844 0.39844 0.89844 0.60156 1.3984 0.60156s1-0.19922 1.3984-0.60156l5.8984-5.8984c0.80078-0.80078 0.80078-2 0-2.8008-0.79687-0.80078-2.0938-0.80078-2.7969 0z"/>
  <path d="m74.602 69.199c-0.80078-0.80078-2-0.80078-2.8008 0s-0.80078 2 0 2.8008l5.8984 5.8984c0.39844 0.39844 0.89844 0.60156 1.3984 0.60156s1-0.19922 1.3984-0.60156c0.80078-0.80078 0.80078-2 0-2.8008z"/>
 </g>
</svg>
