<svg  version="1.1" viewBox="0 0 100 100" xmlns="http://www.w3.org/2000/svg">
 <path d="m65.805 25.246c-3.668-5.9688-6.6094-6.6367-8.4297-6.1484-0.48438 0.12891-0.92188 0.32812-1.3242 0.60156-0.027343 0.015625-0.054687 0.03125-0.078125 0.046875l-29.969 18.953-8.4648 2.2695c-5.6523 1.5156-8.9141 7.7461-7.2656 13.891l1.5859 5.9258c0.78516 2.9375 2.582 5.4297 5.0508 7.0234 1.7539 1.1289 3.6914 1.7109 5.6367 1.7109 0.85156 0 1.707-0.10938 2.5469-0.33594l0.67969-0.17969-3.2305 11.641c-0.48828 1.7578-0.20703 3.5078 0.77734 4.7969 0.94531 1.2422 2.4688 1.957 4.1797 1.957 3.332 0 6.6562-2.5898 7.5781-5.8945l2.3125-8.3281 0.75391 0.21094c0.33203 0.09375 0.66797 0.13672 1 0.13672 1.6367 0 3.1445-1.0859 3.6016-2.7383l0.97656-3.5156 25.277 0.87109c1.2695 0.125 2.457-0.30859 3.4062-1.2539 3.3438-3.3438 3.3242-12.867-0.054688-25.473-1.6875-6.3047-4.0117-12.039-6.5469-16.168zm-4.9375 26.891c-0.76563-2.0977-1.5117-4.4492-2.2148-7.0664-0.34375-1.2852-0.80469-3.3398-1.2227-5.6992 0.87109-0.003906 1.7852 0.33984 2.6484 1.0078 1.2773 0.99219 2.2539 2.5312 2.7539 4.3438 0.5 1.8086 0.45703 3.6328-0.12891 5.1406-0.41016 1.0547-1.0469 1.8398-1.8359 2.2734zm-36.602 13.938c-1.8711 0.5-3.8672 0.15625-5.6133-0.96875-1.8008-1.1602-3.1094-2.9883-3.6914-5.1562l-1.5859-5.9258c-1.1875-4.4336 1.0547-8.8984 4.9961-9.957l7.1484-1.9141 5.8984 22.008-3.375 0.90234c-0.24609 0.007812-0.48828 0.074219-0.70312 0.1875zm7.7188 14.559c-0.52344 1.8867-2.6172 3.543-4.4805 3.543-0.71875 0-1.2812-0.23828-1.6211-0.69141-0.375-0.49219-0.45703-1.1992-0.23828-1.9922l3.7383-13.465 4.1875-1.1211 2.207 0.074219zm7.6641-10.719c-0.078126 0.27344-0.375 0.44141-0.64844 0.36719l-0.50781-0.14062 0.84375-3.0312 1.082 0.035156zm-5.0234-6.1836-6.1133-22.82 24.855-15.719c-0.26563 1.8398-0.30469 4.0938-0.12109 6.7656 0.39453 5.6992 1.6797 11.613 2.3047 13.945 2.2969 8.5703 5.2227 15.129 8.2969 18.836zm35.508 0.87109c-0.21484 0.21484-0.41406 0.32031-0.65625 0.33594-0.042968-0.003906-0.089843-0.007812-0.13281-0.011719l-0.10547-0.003906c-0.054687-0.007813-0.10938-0.019531-0.16797-0.035156-1.8203-0.48828-4.457-3.7031-7.0273-9.7461 1.625-0.75391 2.9023-2.1836 3.6523-4.1172 0.83203-2.1445 0.91406-4.6875 0.23047-7.1602-0.68359-2.4727-2.0625-4.6094-3.8789-6.0195-1.5977-1.2422-3.3828-1.8125-5.125-1.6641-0.20703-1.4727-0.37109-2.9844-0.47266-4.4414-0.45312-6.5625 0.60547-9.2305 1.75-9.5352 0.57812-0.15625 2.3438 0.63281 4.8633 4.7305 2.3789 3.8711 4.5742 9.3047 6.1797 15.301 3.3828 12.598 2.832 20.43 0.89062 22.367zm7.8359-22.129c-0.73828 0-1.3984-0.50781-1.5664-1.2578-0.19141-0.86719 0.35156-1.7227 1.2188-1.918l8.8047-1.957c0.86719-0.19141 1.7227 0.35547 1.918 1.2188 0.19141 0.86719-0.35156 1.7227-1.2188 1.918l-8.8047 1.957c-0.12109 0.027344-0.23828 0.039062-0.35156 0.039062zm12.184 7.7891c0.011718 0.88672-0.69531 1.6172-1.582 1.6289l-9.1445 0.125h-0.023437c-0.875 0-1.5938-0.70703-1.6055-1.5859-0.011719-0.88672 0.69531-1.6172 1.582-1.6289l9.1445-0.125c0.89062-0.007812 1.6172 0.69922 1.6289 1.5859zm-0.90234 14.43c-0.22266 0.67188-0.85156 1.1016-1.5234 1.1016-0.16797 0-0.33984-0.027344-0.50781-0.082031l-8.543-2.8398c-0.84375-0.28125-1.2969-1.1875-1.0156-2.0312s1.1875-1.2969 2.0312-1.0156l8.543 2.8398c0.83984 0.27344 1.2969 1.1836 1.0156 2.0273zm-5.6328-37.445-7.9805 4.4648c-0.24609 0.14062-0.51562 0.20703-0.78125 0.20703-0.5625 0-1.1094-0.29688-1.4023-0.82422-0.43359-0.77344-0.15625-1.7539 0.61719-2.1875l7.9805-4.4648c0.77344-0.43359 1.7539-0.15625 2.1875 0.61719 0.42578 0.77344 0.15234 1.7539-0.62109 2.1875zm-15.629-7.3672 5.9805-6.7305c0.58984-0.66406 1.6055-0.72266 2.2656-0.13281 0.66406 0.58984 0.72266 1.6055 0.13281 2.2656l-5.9805 6.7305c-0.31641 0.35547-0.75781 0.53906-1.1992 0.53906-0.37891 0-0.76172-0.13281-1.0664-0.40625-0.66406-0.58594-0.72266-1.6016-0.13281-2.2656z"/>
</svg>