<svg version="1.1"
     fill="currentColor"
     viewBox="0 0 100 100"
     xmlns="http://www.w3.org/2000/svg">
    <g>
        <path d="m80.938 58.625c0-0.09375 0.03125-0.1875 0.03125-0.29688s-0.046875-0.20312-0.0625-0.3125c-0.015625-0.078125-0.015625-0.17188-0.0625-0.25l-0.03125-0.03125v-0.046875l-3.9688-7.7031c-0.046875-0.09375-0.125-0.15625-0.1875-0.23438-0.046875-0.0625-0.09375-0.14062-0.15625-0.20312-0.078125-0.078125-0.17188-0.125-0.28125-0.1875-0.078125-0.046875-0.125-0.09375-0.20312-0.125l-0.078125-0.03125h-0.015625l-10.188-4.2188c-0.79688-0.32812-1.7188 0.046875-2.0469 0.84375s0.046875 1.7188 0.84375 2.0469l6.8125 2.8125-1.0938 0.45312-20.25 8.3594-20.25-8.3594-1.0938-0.45312 6.8125-2.8125c0.79688-0.32812 1.1719-1.25 0.84375-2.0469s-1.25-1.1719-2.0469-0.84375l-10.203 4.2188-0.078125 0.03125c-0.078125 0.03125-0.15625 0.09375-0.21875 0.14062-0.09375 0.046875-0.17188 0.09375-0.25 0.17188-0.078125 0.0625-0.125 0.15625-0.1875 0.23438-0.046875 0.0625-0.10938 0.10938-0.15625 0.1875l-3.9688 7.7031v0.046875l-0.03125 0.03125c-0.03125 0.078125-0.03125 0.17188-0.0625 0.25-0.03125 0.10938-0.0625 0.20312-0.0625 0.3125 0 0.09375 0.015625 0.1875 0.03125 0.29688 0 0.09375 0.015625 0.20312 0.046875 0.29688s0.09375 0.17188 0.14062 0.25c0.046875 0.09375 0.09375 0.17188 0.15625 0.25s0.15625 0.125 0.23438 0.1875 0.125 0.125 0.20312 0.17188c0.015625 0 0.03125 0 0.0625 0.015625l0.03125 0.015625 3.0469 1.3594v18.938c0 0.625 0.375 1.2031 0.96875 1.4375l25.438 10.5h0.0625c0.17188 0.0625 0.35938 0.10938 0.53125 0.10938s0.35938-0.046875 0.53125-0.10938h0.0625l25.438-10.5c0.57812-0.23438 0.96875-0.8125 0.96875-1.4375v-18.938l3.0469-1.3594 0.03125-0.015625c0.015625 0 0.03125 0 0.0625-0.015625 0.078125-0.046875 0.14062-0.10938 0.20312-0.17188 0.078125-0.0625 0.17188-0.10938 0.23438-0.1875s0.10938-0.17188 0.15625-0.25 0.10938-0.15625 0.14062-0.25 0.03125-0.20312 0.046875-0.29688zm-6.0938 0.10938h-0.03125l-19.875 8.8438-2.7812-5.5625 19.5-8.0469 0.03125-0.015625 3.0469-1.25 2.5625 4.9531-2.4219 1.0781zm-52.109-1.0781 2.5625-4.9531 3.0469 1.2656h0.015625l19.5 8.0469-2.7812 5.5625zm3.3906 4.9219 19.047 8.4688c0.20312 0.09375 0.42188 0.14062 0.64062 0.14062 0.57812 0 1.125-0.3125 1.4062-0.85938l1.2344-2.4844v20.469l-22.312-9.2188v-16.5zm47.75 16.5-22.312 9.2188v-20.469l1.2344 2.4844c0.26562 0.54688 0.82812 0.85938 1.4062 0.85938 0.21875 0 0.42188-0.046875 0.64062-0.14062l19.047-8.4688v16.5z" />
        <path d="m50 15.625c0.85938 0 1.5625-0.70312 1.5625-1.5625v-4.6875c0-0.85938-0.70312-1.5625-1.5625-1.5625s-1.5625 0.70312-1.5625 1.5625v4.6875c0 0.85938 0.70312 1.5625 1.5625 1.5625z" />
        <path d="m31.219 22.484c0.3125 0.3125 0.70312 0.45312 1.1094 0.45312s0.79688-0.15625 1.1094-0.45312c0.60938-0.60938 0.60938-1.5938 0-2.2031l-3.3125-3.3125c-0.60938-0.60938-1.5938-0.60938-2.2031 0s-0.60938 1.5938 0 2.2031l3.3125 3.3125z" />
        <path d="m20.312 40.625h4.6875c0.85938 0 1.5625-0.70312 1.5625-1.5625s-0.70312-1.5625-1.5625-1.5625h-4.6875c-0.85938 0-1.5625 0.70312-1.5625 1.5625s0.70312 1.5625 1.5625 1.5625z" />
        <path d="m67.672 22.953c0.40625 0 0.79688-0.15625 1.1094-0.45312l3.3125-3.3125c0.60938-0.60938 0.60938-1.5938 0-2.2031s-1.5938-0.60938-2.2031 0l-3.3125 3.3125c-0.60938 0.60938-0.60938 1.5938 0 2.2031 0.3125 0.3125 0.70312 0.45312 1.1094 0.45312z" />
        <path d="m75 40.625h4.6875c0.85938 0 1.5625-0.70312 1.5625-1.5625s-0.70312-1.5625-1.5625-1.5625h-4.6875c-0.85938 0-1.5625 0.70312-1.5625 1.5625s0.70312 1.5625 1.5625 1.5625z" />
        <path d="m33.125 32.984c-0.17188 0.54688-0.046875 1.1406 0.35938 1.5625l6.7656 7.0938-1.3125 9.7188c-0.078125 0.5625 0.17188 1.1406 0.625 1.4688 0.46875 0.34375 1.0781 0.39062 1.5938 0.14062l8.8281-4.25 8.8281 4.25c0.21875 0.10938 0.45312 0.15625 0.67188 0.15625 0.32812 0 0.64062-0.09375 0.92188-0.29688 0.46875-0.34375 0.70312-0.90625 0.625-1.4688l-1.3125-9.7188 6.7656-7.0938c0.39062-0.42188 0.53125-1.0156 0.35938-1.5625s-0.64062-0.95312-1.2031-1.0469l-9.6406-1.75-4.6562-8.625c-0.54688-1.0156-2.2031-1.0156-2.75 0l-4.6562 8.625-9.6406 1.75c-0.5625 0.10938-1.0312 0.51562-1.2031 1.0469zm12.156 0.14062c0.46875-0.078125 0.875-0.375 1.0938-0.79688l3.625-6.7344 3.625 6.7344c0.21875 0.42188 0.625 0.71875 1.0938 0.79688l7.5312 1.375-5.2812 5.5312c-0.32812 0.34375-0.48438 0.8125-0.42188 1.2812l1.0312 7.5781-6.8906-3.3125c-0.21875-0.10938-0.45312-0.15625-0.67188-0.15625s-0.46875 0.046875-0.67188 0.15625l-6.8906 3.3125 1.0312-7.5781c0.0625-0.46875-0.09375-0.9375-0.42188-1.2812l-5.2812-5.5312 7.5312-1.375z" />
    </g>
</svg>