<svg fill="currentColor" version="1.1" viewBox="0 0 100 100" xmlns="http://www.w3.org/2000/svg">
    <path d="m50 7.0781c-0.83984 0.003906-1.6758 0.12891-2.4805 0.37109l-7.7891 2.332-8.9492 2.6914v22.527l-9.9414 1.8789v-21.418l-8.6992 2.6211-3.6602 1.1016v-0.003906c-1.8672 0.55859-3.1406 2.2734-3.1406 4.2188v53.203c-0.003906 1.9414 1.2695 3.6562 3.1289 4.2188l39 11.738c0.80469 0.24609 1.6406 0.37109 2.4805 0.37109 0.83984 0 1.6758-0.125 2.4805-0.37109l39-11.738c1.8594-0.5625 3.1328-2.2773 3.1289-4.2188v-53.203c0.003906-1.9414-1.2695-3.6562-3.1289-4.2188l-39-11.738c-0.78906-0.23828-1.6055-0.35938-2.4297-0.36328zm4.3984 10.141l31.449 9.4609 0.003906 46.641-31.453 9.4609zm25.051 28.941c0.054687 0.41406 0.082031 0.83203 0.082031 1.25 0 0.41406-0.027344 0.82812-0.082031 1.2383-0.050781 0.39453-0.125 0.78906-0.23047 1.1719-0.097656 0.37109-0.22656 0.73438-0.37891 1.0898-0.14453 0.34766-0.32031 0.68359-0.51953 1l-6.1211 9.5-0.10938 0.14844-0.12891 0.10938-0.14063 0.078125h-0.4375l-0.12891-0.078125-0.10938-0.12109-7.4102-9.4609-0.003906 0.003906c-0.28125-0.375-0.52344-0.77734-0.73047-1.1992-0.22266-0.42578-0.41016-0.87109-0.55859-1.332-0.15625-0.47656-0.27344-0.96484-0.35156-1.457-0.070313-0.51172-0.097656-1.0273-0.089844-1.543-0.019531-0.51953 0.003906-1.043 0.070312-1.5586 0.074219-0.48047 0.1875-0.95703 0.33984-1.4219 0.16016-0.42969 0.35547-0.84375 0.58984-1.2383 0.21094-0.39062 0.46484-0.75781 0.75-1.1016 0.26562-0.3125 0.5625-0.59766 0.89062-0.84766 0.30859-0.23047 0.64453-0.42188 1-0.57031 0.66797-0.28516 1.3984-0.38672 2.1211-0.28906 0.35938 0.046875 0.71094 0.14062 1.0469 0.27734 0.35547 0.14062 0.69141 0.31641 1 0.53125 0.32031 0.22266 0.61328 0.47656 0.88281 0.76172 0.28516 0.30859 0.54297 0.64453 0.76953 1l0.28125 0.42188 0.26953-0.35156c0.21484-0.29297 0.46484-0.55469 0.73828-0.79297 0.25-0.21094 0.52344-0.38672 0.82031-0.52734 0.27344-0.13281 0.56641-0.22266 0.87109-0.27344 0.29688-0.042969 0.60156-0.042969 0.89844 0 0.30469 0.042969 0.59766 0.12109 0.87891 0.24219 0.28906 0.125 0.5625 0.28125 0.8125 0.46875 0.26562 0.20703 0.50781 0.4375 0.73047 0.69141 0.23828 0.27344 0.44922 0.56641 0.63672 0.87891 0.19922 0.32031 0.375 0.65625 0.52344 1 0.125 0.375 0.22656 0.75391 0.29688 1.1406 0.10156 0.38281 0.17969 0.76953 0.23047 1.1602z"/>
</svg>
