<svg version="1.1" viewBox="0 0 100 100" xmlns="http://www.w3.org/2000/svg">
 <g fill="currentColor">
  <path d="m83.559 35.68c-1.1797-2.7344-2.6914-5.3125-4.5-7.6797-0.28906 0.53906-0.64844 1.0391-1.0586 1.4883-0.23047 0.24219-0.48047 0.47266-0.73828 0.68359-0.46484 0.35938-0.96875 0.67188-1.5 0.92969 2.5547 3.7852 4.3164 8.0508 5.1797 12.539-0.88672-1.0664-1.8945-2.0195-3-2.8516-1.8281-1.375-3.8242-2.5156-5.9414-3.3906-2.332-1.1055-4.7578-2-7.25-2.668-0.41016-1.8594-0.91406-3.6953-1.5117-5.5-1.0898-3.4297-2.6836-6.6797-4.7266-9.6406-0.53516-0.75391-1.1211-1.4648-1.7617-2.1289 3.0625 0.85547 5.9922 2.1367 8.6992 3.8086 0.1875-0.42188 0.41016-0.83203 0.66016-1.2188 0.18359-0.28125 0.38672-0.55078 0.60938-0.80078 0.32031-0.36719 0.67578-0.70312 1.0625-1-1.5234-0.83594-3.1016-1.5703-4.7227-2.1914-11.723-4.4141-24.895-2.457-34.828 5.1719 0.20703 0.25391 0.39062 0.52344 0.55078 0.80859l0.37109-0.26953h-0.003906c2.1133-1.3867 4.3711-2.543 6.7305-3.4414 2.3359-0.86719 4.7617-1.4766 7.2305-1.8086-1.0781 1.0781-2.0195 2.2891-2.8008 3.6016-1.1875 2.0117-2.1445 4.1523-2.8594 6.3789-0.91406 2.4414-1.6523 4.9492-2.1992 7.5-3.4297 0.71875-6.7656 1.8281-9.9414 3.3086-2.1367 0.88672-4.1523 2.0391-6 3.4297-1.4414 1.082-2.6992 2.3867-3.7188 3.8711-0.31641 0.48047-0.59375 0.98828-0.82812 1.5117 0.62891-5.6836 2.6719-11.117 5.9375-15.812l-0.23828-0.14844-0.46094-0.16016-0.21094-0.17188c-4.0312 5.8008-6.2344 12.672-6.3242 19.73-0.09375 7.0625 1.9297 13.988 5.8047 19.891l0.23828-0.14844c0.12109-0.070312 0.23047-0.14844 0.35156-0.21094l0.28125-0.12891c-2.7539-4.1719-4.5625-8.8906-5.3008-13.832 0.078125 0.16016 0.14062 0.32812 0.23047 0.48828v0.003906c0.92578 1.6523 2.125 3.1328 3.5508 4.3789 2.7383 2.375 5.8672 4.2656 9.25 5.5781 2.5508 1.0156 5.1797 1.8242 7.8594 2.4219 0.45312 1.8164 1.0117 3.6055 1.668 5.3594 0.72266 2.2812 1.6992 4.4688 2.9102 6.5312 0.77344 1.3047 1.707 2.5078 2.7812 3.5781-2.457-0.33203-4.8672-0.9375-7.1914-1.7969-1.9062-0.73047-3.7461-1.6211-5.5-2.6719v0.050781c-0.14453 0.30078-0.30859 0.59375-0.48828 0.87891 0.003906 0.019531 0.003906 0.039062 0 0.058593 9.7578 6.6719 22.156 8.168 33.219 4 3.1055-1.1875 6.0352-2.7852 8.7109-4.7578-0.4375-0.29688-0.83203-0.65234-1.168-1.0586-0.22266-0.25391-0.41406-0.52344-0.58203-0.8125-0.27344-0.45312-0.48828-0.94141-0.64062-1.4492-3.7031 3.0625-8.0156 5.3086-12.648 6.5898 0.62109-0.65625 1.1953-1.3594 1.7188-2.1016 2.0469-2.957 3.6445-6.207 4.7305-9.6367 0.37891-1.1602 0.71484-2.3281 1-3.5117 1.7148-0.48047 3.4062-1.0508 5.0586-1.7109 3.3828-1.3047 6.5156-3.1758 9.2617-5.5391 0.71875-0.65625 1.3867-1.3633 2-2.1211-0.89062 3.6875-2.3867 7.1992-4.4297 10.391 0.61328 0.097657 1.2109 0.28516 1.7695 0.55859 0.29688 0.14844 0.58203 0.32422 0.85156 0.52344 0.50391 0.35938 0.94922 0.80078 1.3164 1.2969 1.3711-1.9766 2.5391-4.0859 3.4805-6.2969 3.9219-9.1406 3.9219-19.492 0-28.633zm-45.27-8.6797c0.86328-2.1172 1.9609-4.1289 3.2695-6 0.92188-1.3242 2.0625-2.4805 3.3711-3.4219 1.168-0.89062 2.6016-1.3594 4.0703-1.3398 2.7891 0.17969 5 2.6016 6.6094 5.2812 1.582 2.8047 2.7656 5.8125 3.5195 8.9414 0.28906 1.0508 0.51953 2.1094 0.73828 3.1719l0.003906-0.003906c-3.7227-0.66406-7.4922-0.99609-11.27-1-4.1328-0.011718-8.2578 0.37891-12.312 1.1719 0.51172-2.3125 1.1797-4.582 2-6.8008zm20.832 42.52c-0.76562 3.125-1.9492 6.1328-3.5195 8.9414-1.6016 2.668-3.8203 5.0898-6.6016 5.2773-1.4648 0.03125-2.8984-0.42969-4.0703-1.3086-1.3047-0.94531-2.4414-2.1055-3.3594-3.4297-1.3281-1.8945-2.4414-3.9297-3.3203-6.0703-0.57812-1.5625-1.0742-3.1562-1.4883-4.7695 3.8984 0.77734 7.8633 1.168 11.84 1.168 3.6211-0.007813 7.2344-0.33984 10.797-1-0.089844 0.42188-0.16797 0.8125-0.27734 1.1914zm17.207-12.23c-2.582 1.8594-5.4492 3.2891-8.4883 4.2305-0.82031 0.28125-1.6484 0.51953-2.4805 0.75 0.53906-3.0312 0.87109-6.0938 1-9.168-1.5703 0.71094-3.3359 0.85156-5 0.39844-0.078125 2.1328-0.23438 4.2539-0.46094 6.3594-0.12891 1.1602-0.28906 2.3281-0.46875 3.4883l-2 0.32031v0.003906c-3.2344 0.44922-6.4961 0.66797-9.7578 0.65625-3.2656 0.007813-6.5273-0.21484-9.7617-0.66797-1.0508-0.14844-2.1016-0.32812-3.1484-0.53125-0.30078-1.7305-0.53125-3.5312-0.71094-5.3906-0.29297 0.054688-0.59375 0.082031-0.89062 0.082031h-0.16016c0.17188 1.75 0.39062 3.4688 0.67188 5.1094-1.793-0.35547-3.5586-0.82813-5.293-1.4102-3.0352-0.94531-5.9023-2.375-8.4883-4.2305-2.4492-1.8516-4.4688-4.3516-4.6211-7.2891-0.14844-2.9414 1.5781-5.8711 4-8.0508 1.6875-1.4883 3.5547-2.7539 5.5586-3.7695 2.9375-1.3594 6.0117-2.3906 9.1719-3.0781-0.69141 3.5039-1.1289 7.0508-1.3086 10.617h1c0.17188-3.6445 0.62109-7.2695 1.3398-10.848 7.918-1.5508 16.055-1.6211 24-0.21094 0.26172 1.4219 0.46875 2.8594 0.64844 4.3008 0.80859-0.28906 1.6602-0.44141 2.5195-0.44141 0.78125 0.003907 1.5586 0.125 2.3008 0.35938-0.16016-1-0.35938-2.0586-0.57031-3.0898 2.2344 0.625 4.4141 1.4336 6.5195 2.4102 2 1.0078 3.8633 2.2578 5.5508 3.7305 2.3984 2.1797 4.1914 5.1211 4 8.0586-0.19141 2.9414-2.2109 5.4531-4.6719 7.3008z"/>
  <path d="m22.289 26.648 0.14844 0.10156h0.003906c0.17188 0.10938 0.35938 0.19531 0.55859 0.25 0.082031 0.011719 0.16797 0.011719 0.25 0h0.21875c0.59375 0.007812 1.1562-0.24609 1.543-0.69531 0.38281-0.44531 0.55469-1.043 0.45703-1.625 0.007812-0.054688 0.007812-0.11328 0-0.16797-0.054688-0.27344-0.16797-0.52734-0.32812-0.75l-0.058594-0.070313h-0.003906c-0.37891-0.51562-0.98047-0.81641-1.6172-0.8125-0.55078 0.011719-1.0742 0.24219-1.4531 0.64062-0.37891 0.39844-0.58203 0.92969-0.56641 1.4805-0.007812 0.65625 0.3125 1.2734 0.84766 1.6484z"/>
  <path d="m76.398 72.539c-0.29297-0.21094-0.63672-0.33984-1-0.36719h-0.17969c-1.1367 0-2.0586 0.92188-2.0586 2.0586-0.011718 0.11719-0.011718 0.23438 0 0.34766 0.17969 0.97266 1.0117 1.6875 2 1.7109h0.058594c1.1133-0.027343 2-0.9375 2-2.0508 0.03125-0.66797-0.27734-1.3047-0.82031-1.6992z"/>
  <path d="m72.469 27.828c0.23047 0.003906 0.45703-0.019531 0.67969-0.058594 0.57812-0.125 1.1172-0.39062 1.5703-0.76953 0.26562-0.20703 0.5-0.45312 0.69141-0.73047 0.37109-0.52344 0.58984-1.1406 0.64062-1.7812 0.003907-0.097656 0.003907-0.19922 0-0.29688 0-0.95703-0.38281-1.8789-1.0586-2.5547-0.67578-0.67578-1.5938-1.0586-2.5508-1.0586-0.27734 0.003906-0.55078 0.039063-0.82031 0.10156-1.4531 0.32812-2.543 1.5273-2.7422 3-0.015625 0.17187-0.015625 0.34766 0 0.51953-0.003906 0.95703 0.37109 1.8789 1.043 2.5586 0.67578 0.67969 1.5898 1.0664 2.5469 1.0703z"/>
  <path d="m23.5 72.148c-0.27734 0.003906-0.55078 0.039062-0.82031 0.11328l-0.23047 0.070312v-0.003906c-0.19531 0.058594-0.38672 0.13281-0.57031 0.23047l-0.17969 0.089844c-0.97656 0.55859-1.6367 1.543-1.7812 2.6602-0.14844 1.1133 0.23438 2.2344 1.0352 3.0234 0.80078 0.79297 1.9258 1.1641 3.0391 1.0078 1.1133-0.15625 2.0898-0.82812 2.6367-1.8086 0.15625-0.26953 0.26953-0.55859 0.33984-0.85938v-0.082031c0.0625-0.26172 0.09375-0.53125 0.089844-0.80078 0.019531-1.9844-1.5742-3.6133-3.5586-3.6406z"/>
  <path d="m34.602 49.77c-0.16797-0.042969-0.33984-0.066406-0.51172-0.070312-0.16406 0.003906-0.32812 0.027343-0.48828 0.070312-1.1055 0.023438-1.9805 0.94141-1.957 2.0469 0.023438 1.1016 0.94141 1.9766 2.0469 1.9531 0.13281 0.015625 0.26562 0.015625 0.39844 0 0.19922 0 0.39844-0.035156 0.58984-0.097656 0.96875-0.17578 1.668-1.0273 1.6484-2.0117s-0.75391-1.8047-1.7266-1.9414z"/>
  <path d="m63.25 42.531c-1.625-0.011719-3.0586 1.0742-3.4883 2.6406-0.43359 1.5664 0.23828 3.2305 1.6367 4.0586 0.55859 0.34375 1.1992 0.52734 1.8516 0.53125 1.9219-0.10156 3.4297-1.6914 3.4297-3.6172s-1.5078-3.5117-3.4297-3.6133z"/>
 </g>
</svg>
