<svg fill="currentColor" version="1.1" viewBox="0 0 100 100" xmlns="http://www.w3.org/2000/svg">
    <g>
        <path d="m84.898 10h-69.797c-5.5 0-10 4.5-10 10v40.602c0 5.5 4.5 10 10 10h39l19.898 19.398v-19.398h10.898c5.5 0 10-4.5 10-10v-40.602c0-5.5-4.5-10-10-10zm5 50.602c0 2.8008-2.1992 5-5 5h-15.898v12.5l-11.398-11.102-1.5-1.3984h-41c-2.8008 0-5-2.1992-5-5v-40.602c0-2.8008 2.1992-5 5-5h69.898c2.8008 0 5 2.1992 5 5v40.602z"/>
        <path d="m66.801 36.301h-1.8008c-0.30078-1.3008-0.80078-2.5-1.5-3.6016l1.3008-1.3008c0.69922-0.69922 0.69922-1.8984 0-2.6016l-3.3008-3.3008c-0.69922-0.69922-1.8984-0.69922-2.6016 0l-1.3008 1.3008c-1.1016-0.60156-2.3008-1.1016-3.6016-1.5v-1.8008c0-1-0.80078-1.8008-1.8008-1.8008h-4.6992c-1 0-1.8008 0.80078-1.8008 1.8008v1.8008c-1.3008 0.30078-2.5 0.80078-3.6016 1.5l-1.3008-1.3008c-0.69922-0.69922-1.8984-0.69922-2.6016 0l-3.3008 3.3008c-0.69922 0.69922-0.69922 1.8984 0 2.6016l1.3008 1.3008c-0.60156 1.1016-1.1016 2.3008-1.5 3.6016h-1.8008c-1 0-1.8008 0.80078-1.8008 1.8008v4.6992c0 1 0.80078 1.8008 1.8008 1.8008h1.8008c0.30078 1.3008 0.80078 2.5 1.5 3.6016l-1.3008 1.3008c-0.69922 0.69922-0.69922 1.8984 0 2.6016l3.3008 3.3008c0.69922 0.69922 1.8984 0.69922 2.6016 0l1.3008-1.3008c1.1016 0.60156 2.3008 1.1016 3.6016 1.5v1.8008c0 1 0.80078 1.8008 1.8008 1.8008h4.6992c1 0 1.8008-0.80078 1.8008-1.8008v-1.8008c1.3008-0.30078 2.5-0.80078 3.6016-1.5l1.3008 1.3008c0.69922 0.69922 1.8984 0.69922 2.6016 0l3.3008-3.3008c0.69922-0.69922 0.69922-1.8984 0-2.6016l-1.3008-1.3008c0.60156-1.1016 1.1016-2.3008 1.5-3.6016h1.8008c1 0 1.8008-0.80078 1.8008-1.8008v-4.6992c0-1-0.80078-1.8008-1.8008-1.8008zm-17 11.5c-4 0-7.3008-3.3008-7.3008-7.3008s3.3008-7.3008 7.3008-7.3008 7.3008 3.3008 7.3008 7.3008-3.3008 7.3008-7.3008 7.3008z"/>
    </g>
</svg>
