<svg fill="currentColor" version="1.1" viewBox="0 0 100 100" xmlns="http://www.w3.org/2000/svg">
    <g>
        <path d="m39.062 40.625h21.547c1.1328 0.015625 2.1836-0.58203 2.75-1.5625 4.3047-7.4453 4.4844-16.582 0.46875-24.188-0.37109-0.55469-1.0586-0.8125-1.7031-0.64062-0.65234 0.16016-1.1328 0.71875-1.1875 1.3906-0.98047 2.4844-2.418 4.7617-4.2344 6.7188-0.14062 0.14062-0.26562 0.29688-0.40625 0.45312-0.26562-1.7461-0.90625-3.4141-1.875-4.8906-2.7188-4.1094-1.2969-11.281-1.2969-11.344 0.10547-0.52344-0.066406-1.0664-0.45312-1.4375-0.38281-0.39844-0.94531-0.5625-1.4844-0.4375-5.7344 1.4375-6.25 11.062-6.0469 16.047-1.5859-2.5703-2.5938-5.4531-2.9531-8.4531-0.082031-0.58594-0.48828-1.0742-1.0469-1.2656-0.55078-0.17188-1.1523-0.027344-1.5625 0.375-3.3594 3.3594-2.25 9.4688-0.79688 13.891-1.1055-1.3203-2.1094-2.7266-3-4.2031-0.28125-0.47266-0.79297-0.76562-1.3438-0.76562s-1.0625 0.29297-1.3438 0.76562c-3.5 5.8281 0.375 13.547 3.4375 18.172 0.57031 0.84375 1.5156 1.3555 2.5312 1.375z"/>
        <path d="m34.375 43.75h31.25c0.86328 0 1.5625 0.86328 1.5625 1.5625v6.25c0 0.86328-0.69922 1.5625-1.5625 1.5625h-31.25c-0.86328 0-1.5625-0.86328-1.5625-1.5625v-6.25c0-0.86328 0.69922-1.5625 1.5625-1.5625z"/>
        <path d="m59.375 56.25h-18.75c-0.46484 0-0.90625 0.20703-1.2031 0.5625-0.29297 0.35156-0.42188 0.8125-0.34375 1.2656l6.25 35.938c0.12891 0.75391 0.78516 1.3008 1.5469 1.2969h6.25c0.76953 0.011719 1.4336-0.53906 1.5625-1.2969l6.25-35.938c0.078125-0.45312-0.050781-0.91406-0.34375-1.2656-0.30078-0.36328-0.75-0.56641-1.2188-0.5625z"/>
    </g>
</svg>
