<svg fill="currentColor" version="1.1" viewBox="0 0 100 100" xmlns="http://www.w3.org/2000/svg">
    <g>
        <path d="m61.137 57.293c0.003906 1.7773-0.12109 3.5547-0.36328 5.3164h6.3242c1.0742-3.4648 1.0742-7.1719 0-10.633h-6.3242c0.24609 1.7617 0.36719 3.5352 0.36328 5.3164z"/>
        <path d="m43.246 40.711c-3.4805 1.4297-6.4258 3.9102-8.4219 7.0977h5.2695c0.67188-2.5156 1.7344-4.9102 3.1523-7.0977z"/>
        <path d="m50 39.539c-2.4844 1.7617-4.3867 4.6367-5.5742 8.2695h11.148c-1.1875-3.6367-3.0898-6.5078-5.5742-8.2695z"/>
        <path d="m43.438 62.609h13.125c0.54688-3.5234 0.54688-7.1094 0-10.633h-13.125c-0.54688 3.5234-0.54688 7.1094 0 10.633z"/>
        <path d="m65.176 47.809c-1.9961-3.1875-4.9414-5.668-8.4219-7.0977 1.418 2.1875 2.4805 4.582 3.1523 7.0977z"/>
        <path d="m38.863 57.293c-0.003906-1.7812 0.12109-3.5547 0.36328-5.3164h-6.3242c-1.0742 3.4609-1.0742 7.168 0 10.633h6.3242c-0.24609-1.7617-0.36719-3.5391-0.36328-5.3164z"/>
        <path d="m88.367 13.543h-76.734c-2.3008 0-4.1641 1.8672-4.168 4.1641v6.25h85.07v-6.25c-0.003906-2.2969-1.8672-4.1641-4.168-4.1641zm-72.918 7.293-2.2539-0.003907c-1.1523 0-2.0859-0.92969-2.0859-2.082s0.93359-2.082 2.0859-2.082h2.2578c1.1484 0 2.082 0.92969 2.082 2.082s-0.93359 2.082-2.082 2.082zm8.332 0-2.2539-0.003907c-1.1484 0-2.082-0.92969-2.082-2.082s0.93359-2.082 2.082-2.082h2.2578c1.1484 0 2.082 0.92969 2.082 2.082s-0.93359 2.082-2.082 2.082zm8.8555 0-2.2539-0.003907c-1.1523 0-2.0859-0.92969-2.0859-2.082s0.93359-2.082 2.0859-2.082h2.2578c1.1484 0 2.082 0.92969 2.082 2.082s-0.93359 2.082-2.082 2.082z"/>
        <path d="m34.824 66.773c1.9961 3.1875 4.9414 5.6719 8.4219 7.0977-1.418-2.1836-2.4805-4.5781-3.1523-7.0977z"/>
        <path d="m50 75.043c2.4844-1.7617 4.3867-4.6328 5.5742-8.2695h-11.148c1.1875 3.6367 3.0898 6.5078 5.5742 8.2695z"/>
        <path d="m7.4648 82.293c0.003906 2.2969 1.8672 4.1641 4.168 4.1641h76.734c2.3008 0 4.1641-1.8672 4.168-4.1641v-54.168h-85.07zm42.535-47.074c5.8555 0 11.469 2.3281 15.605 6.4648 4.1406 4.1406 6.4648 9.7539 6.4648 15.609 0 5.8516-2.3242 11.465-6.4648 15.605-4.1367 4.1406-9.75 6.4648-15.605 6.4648s-11.469-2.3242-15.605-6.4648c-4.1406-4.1406-6.4648-9.7539-6.4648-15.605 0.003906-5.8516 2.332-11.465 6.4688-15.602 4.1406-4.1367 9.75-6.4648 15.602-6.4727z"/>
        <path d="m56.754 73.871c3.4805-1.4258 6.4258-3.9102 8.4219-7.0977h-5.2695c-0.67188 2.5195-1.7344 4.9141-3.1523 7.0977z"/>
    </g>
</svg>
