<?xml version="1.0" encoding="UTF-8"?>
<svg fill="currentColor" version="1.1" viewBox="0 0 100 100" xmlns="http://www.w3.org/2000/svg">
    <path d="m49.023 27.051c-2.6172-0.39844-5.3438-0.20703-7.9688 0.625l-9.3008 2.9492c-4.4141 1.4023-7.9219 4.7852-9.4844 9.1445l-7.1992 20.098c-1.3867 3.8711 1.2266 7.9336 5.1758 8.4141-0.22266 0.45703-0.37891 0.94922-0.46484 1.457l-1.8242 10.875c-0.54688 3.2461 2.9141 5.668 5.7773 4.0469l9.5977-5.4375c0.53906-0.30469 1.0234-0.69922 1.4297-1.168l0.023437 0.019531 3.5273-5.0352 2.7031 2.3203c2.6367 2.2578 6.6055 1.9336 8.8359-0.72656 0.43359-0.51562 0.76953-1.0781 1.0078-1.668l2.5156 1.8398c3.3203 2.4297 8.3281 1.7383 10.762-1.6211 1.4648-2.0273 1.6094-4.5195 0.57031-6.5781 1.1523-0.57031 2.2461-1.2773 3.25-2.1133 0.85938-0.71484 1.9414-1.1055 3.0586-1.1055h10.762c3.0195 0 5.4688-2.4492 5.4688-5.4688v-15.398c0-3.0234-2.4492-5.4688-5.4688-5.4688h-12.578c-1.7305 0-3.4258-0.34766-4.9883-1l7.5039-10.719c6.4844-9.2617-7.9336-19.359-14.418-10.098zm-6.8438 40.461c0.76953 0.35938 1.5977 0.61328 2.4688 0.73438l1.4141 1.1836c0.66016 0.55859 0.74219 1.543 0.19922 2.1914-0.55469 0.66016-1.5391 0.74219-2.1953 0.17969l-3.0547-2.6211zm-3.5508-3.1016-4.9961 7.1328-6.7383-4.7188 27.086-38.617-0.039063-0.007812 3.918-5.5938 6.7383 4.7188-16.676 23.816h-2.082c-4.7461 0-8.5938 3.8438-8.5938 8.5938 0 1.7227 0.50781 3.332 1.3828 4.6758zm14.977-13.152 7.9023-11.285c2.3711 1.1484 4.9961 1.7656 7.6914 1.7656h12.578c0.42969 0 0.78125 0.34766 0.78125 0.78125v15.398c0 0.43359-0.35156 0.78125-0.78125 0.78125h-10.762c-2.2109 0-4.3555 0.77344-6.0547 2.1875-2.1367 1.7773-4.832 2.7539-7.6094 2.7539h-11.512c-2.1562 0-3.9062-1.75-3.9062-3.9062 0-2.1602 1.75-3.9062 3.9062-3.9062h7.0312c1.293 0 2.3438-1.0508 2.3438-2.3438 0-1.0391-0.67578-1.918-1.6094-2.2266zm-29.605 11.527c-0.875 0.55078-1.9023 0.85547-2.9727 0.85547-1.1367 0-1.9258-1.125-1.543-2.1914l7.1953-20.098c1.0703-2.9844 3.4727-5.2969 6.4922-6.2578l9.3008-2.9492c1.1211-0.35547 2.2617-0.55078 3.4023-0.59766zm36.547-44.02 6.7383 4.7188 0.58984-0.84375c2.9609-4.2266-3.7773-8.9453-6.7383-4.7188zm-29.758 56.508-7.9375 4.5 1.5117-9zm29.484-6.9219c-0.87891 0.13672-1.7695 0.20703-2.6641 0.20703h-4.8359l3.3672 2.4648c1.293 0.94531 3.3398 0.59766 4.1992-0.58984 0.48828-0.67188 0.46875-1.4609-0.066406-2.082z"
          fill-rule="evenodd"/>
</svg>
