<svg>
    <defs>
        <g id="code" fill="currentColor">
            <path fill-rule="evenodd"
                  d="M2.25 6a3 3 0 0 1 3-3h13.5a3 3 0 0 1 3 3v12a3 3 0 0 1-3 3H5.25a3 3 0 0 1-3-3V6Zm3.97.97a.75.75 0 0 1 1.06 0l2.25 2.25a.75.75 0 0 1 0 1.06l-2.25 2.25a.75.75 0 0 1-1.06-1.06l1.72-1.72-1.72-1.72a.75.75 0 0 1 0-1.06Zm4.28 4.28a.75.75 0 0 0 0 1.5h3a.75.75 0 0 0 0-1.5h-3Z"
                  clip-rule="evenodd"/>
        </g>
        <g id="book" fill="currentColor">
            <path d="M11.25 4.533A9.707 9.707 0 0 0 6 3a9.735 9.735 0 0 0-3.25.555.75.75 0 0 0-.5.707v14.25a.75.75 0 0 0 1 .707A8.237 8.237 0 0 1 6 18.75c1.995 0 3.823.707 5.25 1.886V4.533ZM12.75 20.636A8.214 8.214 0 0 1 18 18.75c.966 0 1.89.166 2.75.47a.75.75 0 0 0 1-.708V4.262a.75.75 0 0 0-.5-.707A9.735 9.735 0 0 0 18 3a9.707 9.707 0 0 0-5.25 1.533v16.103Z"/>
        </g>

        <g id="building" fill="currentColor">

            <path fill-rule="evenodd"
                  d="M3 2.25a.75.75 0 0 0 0 1.5v16.5h-.75a.75.75 0 0 0 0 1.5H15v-18a.75.75 0 0 0 0-1.5H3ZM6.75 19.5v-2.25a.75.75 0 0 1 .75-.75h3a.75.75 0 0 1 .75.75v2.25a.75.75 0 0 1-.75.75h-3a.75.75 0 0 1-.75-.75ZM6 6.75A.75.75 0 0 1 6.75 6h.75a.75.75 0 0 1 0 1.5h-.75A.75.75 0 0 1 6 6.75ZM6.75 9a.75.75 0 0 0 0 1.5h.75a.75.75 0 0 0 0-1.5h-.75ZM6 12.75a.75.75 0 0 1 .75-.75h.75a.75.75 0 0 1 0 1.5h-.75a.75.75 0 0 1-.75-.75ZM10.5 6a.75.75 0 0 0 0 1.5h.75a.75.75 0 0 0 0-1.5h-.75Zm-.75 3.75A.75.75 0 0 1 10.5 9h.75a.75.75 0 0 1 0 1.5h-.75a.75.75 0 0 1-.75-.75ZM10.5 12a.75.75 0 0 0 0 1.5h.75a.75.75 0 0 0 0-1.5h-.75ZM16.5 6.75v15h5.25a.75.75 0 0 0 0-1.5H21v-12a.75.75 0 0 0 0-1.5h-4.5Zm1.5 4.5a.75.75 0 0 1 .75-.75h.008a.75.75 0 0 1 .75.75v.008a.75.75 0 0 1-.75.75h-.008a.75.75 0 0 1-.75-.75v-.008Zm.75 2.25a.75.75 0 0 0-.75.75v.008c0 .414.336.75.75.75h.008a.75.75 0 0 0 .75-.75v-.008a.75.75 0 0 0-.75-.75h-.008ZM18 17.25a.75.75 0 0 1 .75-.75h.008a.75.75 0 0 1 .75.75v.008a.75.75 0 0 1-.75.75h-.008a.75.75 0 0 1-.75-.75v-.008Z"
                  clip-rule="evenodd"/>


        </g>
    </defs>
</svg>
