<svg>
    <defs>
        <g id="code" fill="currentColor">
  <path fill-rule="evenodd" d="M2.25 6a3 3 0 0 1 3-3h13.5a3 3 0 0 1 3 3v12a3 3 0 0 1-3 3H5.25a3 3 0 0 1-3-3V6Zm3.97.97a.75.75 0 0 1 1.06 0l2.25 2.25a.75.75 0 0 1 0 1.06l-2.25 2.25a.75.75 0 0 1-1.06-1.06l1.72-1.72-1.72-1.72a.75.75 0 0 1 0-1.06Zm4.28 4.28a.75.75 0 0 0 0 1.5h3a.75.75 0 0 0 0-1.5h-3Z" clip-rule="evenodd" />
    </g>
        <g id="book" fill="currentColor">
  <path d="M11.25 4.533A9.707 9.707 0 0 0 6 3a9.735 9.735 0 0 0-3.25.555.75.75 0 0 0-.5.707v14.25a.75.75 0 0 0 1 .707A8.237 8.237 0 0 1 6 18.75c1.995 0 3.823.707 5.25 1.886V4.533ZM12.75 20.636A8.214 8.214 0 0 1 18 18.75c.966 0 1.89.166 2.75.47a.75.75 0 0 0 1-.708V4.262a.75.75 0 0 0-.5-.707A9.735 9.735 0 0 0 18 3a9.707 9.707 0 0 0-5.25 1.533v16.103Z" />
            </g>
    </defs>
</svg>
