<svg>
    <defs>
        <g id="code" fill="currentColor">
            <path fill-rule="evenodd"
                  d="M2.25 6a3 3 0 0 1 3-3h13.5a3 3 0 0 1 3 3v12a3 3 0 0 1-3 3H5.25a3 3 0 0 1-3-3V6Zm3.97.97a.75.75 0 0 1 1.06 0l2.25 2.25a.75.75 0 0 1 0 1.06l-2.25 2.25a.75.75 0 0 1-1.06-1.06l1.72-1.72-1.72-1.72a.75.75 0 0 1 0-1.06Zm4.28 4.28a.75.75 0 0 0 0 1.5h3a.75.75 0 0 0 0-1.5h-3Z"
                  clip-rule="evenodd"/>
        </g>
        <g id="book" fill="currentColor">
            <path d="M11.25 4.533A9.707 9.707 0 0 0 6 3a9.735 9.735 0 0 0-3.25.555.75.75 0 0 0-.5.707v14.25a.75.75 0 0 0 1 .707A8.237 8.237 0 0 1 6 18.75c1.995 0 3.823.707 5.25 1.886V4.533ZM12.75 20.636A8.214 8.214 0 0 1 18 18.75c.966 0 1.89.166 2.75.47a.75.75 0 0 0 1-.708V4.262a.75.75 0 0 0-.5-.707A9.735 9.735 0 0 0 18 3a9.707 9.707 0 0 0-5.25 1.533v16.103Z"/>
        </g>

        <g id="building" fill="currentColor">

            <path fill-rule="evenodd"
                  d="M3 2.25a.75.75 0 0 0 0 1.5v16.5h-.75a.75.75 0 0 0 0 1.5H15v-18a.75.75 0 0 0 0-1.5H3ZM6.75 19.5v-2.25a.75.75 0 0 1 .75-.75h3a.75.75 0 0 1 .75.75v2.25a.75.75 0 0 1-.75.75h-3a.75.75 0 0 1-.75-.75ZM6 6.75A.75.75 0 0 1 6.75 6h.75a.75.75 0 0 1 0 1.5h-.75A.75.75 0 0 1 6 6.75ZM6.75 9a.75.75 0 0 0 0 1.5h.75a.75.75 0 0 0 0-1.5h-.75ZM6 12.75a.75.75 0 0 1 .75-.75h.75a.75.75 0 0 1 0 1.5h-.75a.75.75 0 0 1-.75-.75ZM10.5 6a.75.75 0 0 0 0 1.5h.75a.75.75 0 0 0 0-1.5h-.75Zm-.75 3.75A.75.75 0 0 1 10.5 9h.75a.75.75 0 0 1 0 1.5h-.75a.75.75 0 0 1-.75-.75ZM10.5 12a.75.75 0 0 0 0 1.5h.75a.75.75 0 0 0 0-1.5h-.75ZM16.5 6.75v15h5.25a.75.75 0 0 0 0-1.5H21v-12a.75.75 0 0 0 0-1.5h-4.5Zm1.5 4.5a.75.75 0 0 1 .75-.75h.008a.75.75 0 0 1 .75.75v.008a.75.75 0 0 1-.75.75h-.008a.75.75 0 0 1-.75-.75v-.008Zm.75 2.25a.75.75 0 0 0-.75.75v.008c0 .414.336.75.75.75h.008a.75.75 0 0 0 .75-.75v-.008a.75.75 0 0 0-.75-.75h-.008ZM18 17.25a.75.75 0 0 1 .75-.75h.008a.75.75 0 0 1 .75.75v.008a.75.75 0 0 1-.75.75h-.008a.75.75 0 0 1-.75-.75v-.008Z"
                  clip-rule="evenodd"/>


        </g>
        <g id="startup" fill="currentColor">
            <path fill-rule="evenodd"
                  d="M9.315 7.584C12.195 3.883 16.695 1.5 21.75 1.5a.75.75 0 0 1 .75.75c0 5.056-2.383 9.555-6.084 12.436A6.75 6.75 0 0 1 9.75 22.5a.75.75 0 0 1-.75-.75v-4.131A15.838 15.838 0 0 1 6.382 15H2.25a.75.75 0 0 1-.75-.75 6.75 6.75 0 0 1 7.815-6.666ZM15 6.75a2.25 2.25 0 1 0 0 4.5 2.25 2.25 0 0 0 0-4.5Z"
                  clip-rule="evenodd"/>
            <path d="M5.26 17.242a.75.75 0 1 0-.897-1.203 5.243 5.243 0 0 0-2.05 5.022.75.75 0 0 0 .625.627 5.243 5.243 0 0 0 5.022-2.051.75.75 0 1 0-1.202-.897 3.744 3.744 0 0 1-3.008 1.51c0-1.23.592-2.323 1.51-3.008Z"/>

        </g>
        <g fill="currentColor" id="work">
            <path fill-rule="evenodd"
                  d="M7.5 5.25a3 3 0 0 1 3-3h3a3 3 0 0 1 3 3v.205c.933.085 1.857.197 2.774.334 1.454.218 2.476 1.483 2.476 2.917v3.033c0 1.211-.734 2.352-1.936 2.752A24.726 24.726 0 0 1 12 15.75c-2.73 0-5.357-.442-7.814-1.259-1.202-.4-1.936-1.541-1.936-2.752V8.706c0-1.434 1.022-2.7 2.476-2.917A48.814 48.814 0 0 1 7.5 5.455V5.25Zm7.5 0v.09a49.488 49.488 0 0 0-6 0v-.09a1.5 1.5 0 0 1 1.5-1.5h3a1.5 1.5 0 0 1 1.5 1.5Zm-3 8.25a.75.75 0 1 0 0-1.5.75.75 0 0 0 0 1.5Z"
                  clip-rule="evenodd"/>
            <path d="M3 18.4v-2.796a4.3 4.3 0 0 0 .713.31A26.226 26.226 0 0 0 12 17.25c2.892 0 5.68-.468 8.287-1.335.252-.084.49-.189.713-.311V18.4c0 1.452-1.047 2.728-2.523 2.923-2.12.282-4.282.427-6.477.427a49.19 49.19 0 0 1-6.477-.427C4.047 21.128 3 19.852 3 18.4Z"/>


        </g>
        <g id="industries"  fill="currentColor">
                <path fill-rule="evenodd"
                      d="M15.75 4.5a3 3 0 1 1 .825 2.066l-8.421 4.679a3.002 3.002 0 0 1 0 1.51l8.421 4.679a3 3 0 1 1-.729 1.31l-8.421-4.678a3 3 0 1 1 0-4.132l8.421-4.679a3 3 0 0 1-.096-.755Z"
                      clip-rule="evenodd"/>
        </g>
        <g id="senior-position" fill="currentColor">
                <path fill-rule="evenodd" d="M8.25 6.75a3.75 3.75 0 1 1 7.5 0 3.75 3.75 0 0 1-7.5 0ZM15.75 9.75a3 3 0 1 1 6 0 3 3 0 0 1-6 0ZM2.25 9.75a3 3 0 1 1 6 0 3 3 0 0 1-6 0ZM6.31 15.117A6.745 6.745 0 0 1 12 12a6.745 6.745 0 0 1 6.709 7.498.75.75 0 0 1-.372.568A12.696 12.696 0 0 1 12 21.75c-2.305 0-4.47-.612-6.337-1.684a.75.75 0 0 1-.372-.568 6.787 6.787 0 0 1 1.019-4.38Z" clip-rule="evenodd" />
                <path d="M5.082 14.254a8.287 8.287 0 0 0-1.308 5.135 9.687 9.687 0 0 1-1.764-.44l-.115-.04a.563.563 0 0 1-.373-.487l-.01-.121a3.75 3.75 0 0 1 3.57-4.047ZM20.226 19.389a8.287 8.287 0 0 0-1.308-5.135 3.75 3.75 0 0 1 3.57 4.047l-.01.121a.563.563 0 0 1-.373.486l-.115.04c-.567.2-1.156.349-1.764.441Z" />

        </g>
        <g id="arrow-right"  fill="none" stroke-width="1.5" stroke="currentColor">

                <path stroke-linecap="round" stroke-linejoin="round" d="M13.5 4.5 21 12m0 0-7.5 7.5M21 12H3" />



        </g>
    </defs>
</svg>
