<svg>
    <defs>
        <g id="code" fill="currentColor">
            <path d="m50 2.5c-26.199 0-47.5 21.301-47.5 47.5s21.301 47.5 47.5 47.5 47.5-21.301 47.5-47.5-21.301-47.5-47.5-47.5zm0 90.301c-23.602 0-42.801-19.199-42.801-42.801s19.199-42.801 42.801-42.801 42.801 19.199 42.801 42.801-19.199 42.801-42.801 42.801z"/>
            <path d="m57.801 26.898c-1.1992-0.39844-2.5 0.19922-3 1.5l-14.102 41.703c-0.39844 1.1992 0.19922 2.5 1.5 3 0.19922 0.10156 0.5 0.10156 0.69922 0.10156 1 0 1.8984-0.60156 2.1992-1.6016l14.102-41.699c0.5-1.2031-0.19922-2.6016-1.3984-3.0039z"/>
            <path d="m37.801 38.301c-0.69922-1.1016-2.1992-1.3984-3.1992-0.60156l-15.402 10.301c-0.10156 0.10156-0.19922 0.19922-0.30078 0.30078l-0.10156 0.10156c-0.10156 0.10156-0.10156 0.10156-0.19922 0.19922 0 0.10156-0.10156 0.10156-0.10156 0.19922-0.39844 0.80078-0.39844 1.6992 0.10156 2.3984 0.10156 0.10156 0.19922 0.30078 0.30078 0.39844l0.10156 0.10156c0.10156 0 0.10156 0.10156 0.19922 0.10156l15.398 10.398c0.39844 0.30078 0.89844 0.39844 1.3008 0.39844 0.80078 0 1.5-0.39844 1.8984-1 0.69922-1.1016 0.39844-2.5-0.60156-3.1992l-12.594-8.3984 12.5-8.3984c1.0977-0.80078 1.3984-2.2031 0.69922-3.3008z"/>
            <path d="m62.199 38.301c-0.69922 1.1016-0.39844 2.5 0.60156 3.1992l12.598 8.5-12.5 8.3984c-1.1016 0.69922-1.3984 2.1992-0.60156 3.1992 0.5 0.69922 1.1992 1 1.8984 1 0.39844 0 0.89844-0.10156 1.3008-0.39844l15.398-10.398c0.10156 0 0.10156-0.10156 0.10156-0.10156l0.10156-0.10156c0.10156-0.10156 0.19922-0.19922 0.30078-0.30078 0.10156-0.10156 0.10156-0.19922 0.19922-0.30078 0 0 0-0.10156 0.10156-0.10156 0-0.10156 0-0.10156 0.10156-0.19922 0-0.19922 0.10156-0.30078 0.10156-0.5v-0.19922-0.19922c0-0.19922 0-0.30078-0.10156-0.5 0-0.10156 0-0.10156-0.10156-0.19922 0 0 0-0.10156-0.10156-0.10156 0-0.10156-0.10156-0.19922-0.19922-0.30078l-0.10156-0.10156c-0.10156-0.10156-0.10156-0.19922-0.19922-0.19922-0.10156-0.10156-0.19922-0.10156-0.19922-0.19922l-0.10156-0.10156-15.398-10.395c-1-0.69922-2.5-0.39844-3.1992 0.60156z"/>
        </g>
        <g id="code2" fill="currentColor">
            <path d="m36.457 9.375c-14.957 0-27.082 12.125-27.082 27.082v27.086c0 14.957 12.125 27.082 27.082 27.082h27.086c14.957 0 27.082-12.125 27.082-27.082v-27.086c0-14.957-12.125-27.082-27.082-27.082zm19.949 25.156c-1.2188 1.2227-1.2188 3.1992 0 4.4219l11.051 11.047-11.051 11.047c-1.2188 1.2227-1.2188 3.1992 0 4.4219 1.2227 1.2188 3.1992 1.2188 4.4219 0l13.258-13.258c1.2188-1.2227 1.2188-3.1992 0-4.4219l-13.258-13.258c-1.2227-1.2188-3.1992-1.2188-4.4219 0zm-12.812 0c1.2188 1.2227 1.2188 3.1992 0 4.4219l-11.051 11.047 11.051 11.047c1.2188 1.2227 1.2188 3.1992 0 4.4219-1.2227 1.2188-3.1992 1.2188-4.4219 0l-13.258-13.258c-1.2188-1.2227-1.2188-3.1992 0-4.4219l13.258-13.258c1.2227-1.2188 3.1992-1.2188 4.4219 0z"
                  fill-rule="evenodd"/>


        </g>
    </defs>
</svg>
